<svg id="Layer_1" data-name="Layer 1" xmlns="http://www.w3.org/2000/svg" viewBox="0 0 323.44 47.28"><defs><style>.cls-1{fill:#ff675d;}.cls-2{fill:#2ad03d;}</style></defs><title>uproar_logo_</title><path class="cls-1" d="M167.84,34.31l.18.21-.18-.21Z"/><polygon class="cls-1" points="254.79 30.85 254.79 30.85 254.79 30.86 254.79 30.85"/><polygon class="cls-1" points="107.47 37.16 107.47 37.16 107.47 37.16 107.47 37.16"/><path class="cls-1" d="M167.84,34.31l.18.21-.18-.21Z"/><polygon class="cls-1" points="254.79 30.85 254.79 30.85 254.79 30.86 254.79 30.85"/><polygon class="cls-1" points="107.47 37.16 107.47 37.16 107.47 37.16 107.47 37.16"/><path class="cls-2" d="M184.11,47.28A22.85,22.85,0,0,0,205.5,32.87l-14.41.62A7.69,7.69,0,0,1,184.77,37,7.12,7.12,0,0,1,179,34l-14.08.6A20.15,20.15,0,0,0,184.11,47.28Z"/><path class="cls-2" d="M232.46,46.54c1.31-2.56,2.72-5.51,3.87-8.07l14.74,0a72,72,0,0,1,.44,8.16c4.58,0,9.15,0,13.72,0a63,63,0,0,0-.49-7.24,71.49,71.49,0,0,0-1.59-8.93L226.51,32c-1.95,4.69-4.37,9.92-6.76,14.62Z"/><path class="cls-2" d="M125.22,46.53c-.38-3.33-.68-7-.89-10.29L111,36.81c.29,3.13.66,6.6,1.15,9.72C116.53,46.55,120.87,46.52,125.22,46.53Z"/><path class="cls-2" d="M130.66,38.89c1.65,2.61,3.19,5.07,4.86,7.68h14.74c-2.39-3.77-4.7-7.37-7.14-11.13l-14.24.61,1.78,2.84Z"/><path class="cls-2" d="M298.5,46.5a71.24,71.24,0,0,0,3.95-15.16h2.25a53.5,53.5,0,0,1,3.35,10.48h0c.25,1.24.5,3.44.64,4.68,4.91,0,9.83.06,14.75,0a51.38,51.38,0,0,0-3.24-13.09h0A59,59,0,0,0,317.62,28l-28.36,1.21a75,75,0,0,1-3.79,17.29C289.81,46.46,294.16,46.54,298.5,46.5Z"/></svg>