<svg id="Layer_1" data-name="Layer 1" xmlns="http://www.w3.org/2000/svg" viewBox="0 0 323.44 47.28"><defs><style>.cls-1{fill:#ff675d;}</style></defs><title>uproar_logo_</title><path class="cls-1" d="M31.66.72c-3.77,9-4.83,18.5-4.62,27.54.12,5-1.94,7.41-6.92,7.33-3.77-.06-6.22-2.37-7.06-7.24-1.53-8.82.86-18.71,5-27.63-4.38.05-7.74,0-12.12,0C1.43,9.51-.68,19.09.19,27.88c1.79,13,13.12,18.87,23.49,18.9,10.75,0,16.11-5.59,16.07-18.82,0-9,.83-18.29,4.17-27.24C39.54.76,36.05.68,31.66.72Z"/><path class="cls-1" d="M75.8.69,60.46.8c-5.5,16.08-4.67,30.63.09,45.7,4.37,0,8.73,0,13.1,0a92.47,92.47,0,0,1-2.69-14h2.12c11.57,0,18.43-5.51,19-16.29C92.84,5.68,87.24.62,75.8.69Zm3.32,15.73c-.31,4.28-2.71,6.26-7.25,6.26H70.34a83.21,83.21,0,0,1,1-12.17H73C77.46,10.49,79.42,12.46,79.12,16.42Z"/><path class="cls-1" d="M180.66,0c-12.83,0-21.39,9.63-21.49,23.88a27.47,27.47,0,0,0,2,10.91l14.09-.6c-1.78-2.35-2.52-5.75-2.53-10.38,0-8.25,2.93-13.51,8.44-13.5s9,5.26,9,13.5c0,4.31-.78,7.52-2.48,9.88h0l14.39-.62a24.51,24.51,0,0,0,1.66-9.32C203.64,9.62,193.35,0,180.66,0Z"/><path class="cls-1" d="M246.28.81c-4.9,0-9.79,0-14.69,0-1.11,10.55-4.31,20.68-8.73,31.29l36.64-1.57C257,20.53,252.43,10.86,246.28.81Zm-9.66,27.77a102.81,102.81,0,0,0,4.09-15,106.85,106.85,0,0,1,4.95,15Z"/><path class="cls-1" d="M138.19,33.43h0L135.35,29c5.14-2.66,7.85-7,7.94-13.18C143.39,6,137.12.73,125.75.76l-17,.05a146.6,146.6,0,0,0-1.09,36.29L121,36.53c-.1-1.41-.22-2.73-.28-4.14H123c.83,1.34,1.63,2.56,2.47,3.91l14.24-.61M123.19,23h-2.8q0-6.15.43-12.29h2.7c4.34,0,6.65,2.12,6.55,6C130,20.69,127.59,23,123.19,23Z"/><path class="cls-1" d="M314.53,28.16c5.44-2.59,8.06-6.49,7.07-12.45C319.79,6.23,310,1.09,298.78,1L281.84.81a61.49,61.49,0,0,1,3.91,28.53ZM300.6,10.59c4.32,0,7.38,2.11,7.92,5.85.53,3.93-1.95,6.13-6.32,6.13h-2.79a55.21,55.21,0,0,0-1.51-12Z"/><path class="cls-1" d="M167.84,34.31l.18.21-.18-.21Z"/><polygon class="cls-1" points="254.79 30.85 254.79 30.85 254.79 30.86 254.79 30.85"/><polygon class="cls-1" points="107.47 37.16 107.47 37.16 107.47 37.16 107.47 37.16"/><path class="cls-1" d="M167.84,34.31l.18.21-.18-.21Z"/><polygon class="cls-1" points="254.79 30.85 254.79 30.85 254.79 30.86 254.79 30.85"/><polygon class="cls-1" points="107.47 37.16 107.47 37.16 107.47 37.16 107.47 37.16"/></svg>